# xmcd CD database file
#
# Track frame offsets:
#	150
#	35035
#	52527
#	76105
#	101160
#	124360
#	141773
#	187655
#	221890
#	245733
#	271836
#
# Disc length: 3802 seconds
#
# Revision: 0
# Processed by: cddbd v1.5.2PL0 Copyright (c) Steve Scherf et al.
# Submitted via: CDex 1.70beta2
#
DISCID=980ed80b
DTITLE=Doreen Ketchens - What a Wonderful World Vol. XI
DYEAR=2001
DGENRE=Jazz
TTITLE0=What a Wonderful World
TTITLE1=Mack the Knife
TTITLE2=Back Home Again in Indiana
TTITLE3=Up a Lazy River
TTITLE4=The Chase
TTITLE5=Darktown Strutter's Ball
TTITLE6=Medley Lily of the Valley This Little Light of Mine and Jesus on the Main Line
TTITLE7=Washington and Lee Swing
TTITLE8=The Tiger Rag
TTITLE9=Bye Bye Blackbird
TTITLE10=Bye and Bye
EXTD=YEAR: 2001
EXTT0=
EXTT1=
EXTT2=
EXTT3=
EXTT4=
EXTT5=
EXTT6=
EXTT7=
EXTT8=
EXTT9=
EXTT10=
PLAYORDER=
